<svg xmlns="http://www.w3.org/2000/svg" width="100" height="91" viewBox="0 0 100 91">
  <defs>
    <style>
      .cls-1 {
        fill: #c8c8c8;
        fill-rule: evenodd;
      }
    </style>
  </defs>
  <path id="Фигура_12" data-name="Фигура 12" class="cls-1" d="M61.19,58.091a7.261,7.261,0,1,1-.527-14.141,16.158,16.158,0,0,0,.374,6.66l0.005,0.005h0a16.229,16.229,0,0,0,3.028,5.966A7.271,7.271,0,0,1,61.19,58.091ZM48.283,80.211a7.261,7.261,0,1,1,5.163-8.889A7.307,7.307,0,0,1,48.283,80.211Zm17.606-4.689a7.261,7.261,0,1,1,5.163-8.889A7.307,7.307,0,0,1,65.889,75.522ZM83.5,70.832A7.306,7.306,0,0,1,74.553,65.7a7.183,7.183,0,0,1-.133-3.168,16.65,16.65,0,0,0,6.731-.366l0.005-.005v0a16.386,16.386,0,0,0,6.024-3.029A7.239,7.239,0,0,1,83.5,70.832ZM52.981,97.641a7.261,7.261,0,1,1,5.163-8.889A7.307,7.307,0,0,1,52.981,97.641Zm17.606-4.689a7.261,7.261,0,1,1,5.163-8.889A7.307,7.307,0,0,1,70.588,92.952Zm17.606-4.69a7.261,7.261,0,1,1,5.163-8.889A7.306,7.306,0,0,1,88.194,88.262ZM43.584,62.781a7.261,7.261,0,1,1,5.163-8.889A7.308,7.308,0,0,1,43.584,62.781Zm36.809-3.457a13.395,13.395,0,1,1,9.525-16.4A13.48,13.48,0,0,1,80.393,59.324ZM14,121.406v-10.99h6.3l-0.287,1.8H16.227v2.546h3.165v1.8H16.258v2.942h4.184v1.9H14Zm15.383-.838a4.907,4.907,0,0,1-1.265.727,4.74,4.74,0,0,1-1.79.3,4.811,4.811,0,0,1-2.18-.435,4.542,4.542,0,0,1-1.415-1.083,4.905,4.905,0,0,1-1.026-1.779,7.027,7.027,0,0,1-.31-2.143,8.547,8.547,0,0,1,.191-1.834,6.217,6.217,0,0,1,.557-1.566,4.733,4.733,0,0,1,4.216-2.53,4.79,4.79,0,0,1,1.082.111,4.958,4.958,0,0,1,.827.261,4.1,4.1,0,0,1,.573.292c0.149,0.095.25,0.164,0.3,0.206l-1,1.486a2.39,2.39,0,0,0-.947-0.5,3.443,3.443,0,0,0-.771-0.118,2.335,2.335,0,0,0-1.122.268,2.211,2.211,0,0,0-.788.681,2.642,2.642,0,0,0-.334.695,5.228,5.228,0,0,0-.191.806,7.245,7.245,0,0,0-.079.807q-0.016.4-.016,0.712,0,0.553.032,0.972c0.021,0.28.051,0.527,0.088,0.744a3.442,3.442,0,0,0,.143.569,3.278,3.278,0,0,0,.2.451,2.1,2.1,0,0,0,.963.956,2.775,2.775,0,0,0,2.163.079,3.008,3.008,0,0,0,.883-0.514l1.018,1.376h0Zm10.356,0.838-0.414-5.867c-0.011-.147-0.019-0.245-0.024-0.292s-0.01-.116-0.015-0.206-0.011-.226-0.016-0.411-0.013-.493-0.024-0.925q-0.1.505-.2,0.909c-0.069.269-.141,0.53-0.214,0.783l-1.75,6.009H35.189l-1.575-5.772q-0.159-.6-0.263-1.028t-0.183-.917q-0.015.7-.024,1c-0.005.206-.01,0.356-0.016,0.451s-0.011.166-.016,0.214-0.013.15-.024,0.308l-0.382,5.74H30.5l1.034-10.99h2.847l1.448,5.5c0.074,0.274.13,0.485,0.167,0.632s0.066,0.28.088,0.4a1.413,1.413,0,0,1,.04.229,1.354,1.354,0,0,0,.04.229,1.088,1.088,0,0,1,.024.127,1.088,1.088,0,0,0,.024.127q0.047-.285.1-0.57c0.037-.19.077-0.366,0.119-0.53l0.111-.427c0.032-.121.053-0.208,0.064-0.26l1.5-5.456h2.832l0.986,10.99H39.739Zm3.611-3.416v-1.834h3.818v1.834H43.351Zm7.906,1.281v0.649q0,0.443-.024.783a3.4,3.4,0,0,1-.135.719,3.462,3.462,0,0,1-.477,1.012,3.858,3.858,0,0,1-.668.735,4.39,4.39,0,0,1-.748.514,5.414,5.414,0,0,1-.684.317l-1.034-1.139a6.433,6.433,0,0,0,.652-0.5,2.609,2.609,0,0,0,.636-0.83,2.852,2.852,0,0,0,.191-0.712,6.434,6.434,0,0,0,.032-0.68v-9.725h2.259v8.855h0Zm5.377-4.6a1.662,1.662,0,0,0-.446.071,0.926,0.926,0,0,0-.478.372,1.93,1.93,0,0,0-.342.885,10.589,10.589,0,0,0,0,2.72,1.938,1.938,0,0,0,.342.886,0.929,0.929,0,0,0,.478.371,1.433,1.433,0,0,0,.891,0,0.928,0.928,0,0,0,.477-0.371,1.937,1.937,0,0,0,.342-0.886,10.577,10.577,0,0,0,0-2.72,1.929,1.929,0,0,0-.342-0.885,0.926,0.926,0,0,0-.477-0.372,1.663,1.663,0,0,0-.446-0.071h0Zm0-1.55a4.221,4.221,0,0,1,1.431.245,3.119,3.119,0,0,1,1.273.909,3.417,3.417,0,0,1,.82,1.5,7,7,0,0,1,0,3.178,3.417,3.417,0,0,1-.82,1.495,3.137,3.137,0,0,1-1.273.909,4.306,4.306,0,0,1-2.863,0,3.14,3.14,0,0,1-1.273-.909,3.414,3.414,0,0,1-.819-1.495,7,7,0,0,1,0-3.178,3.414,3.414,0,0,1,.819-1.5,3.121,3.121,0,0,1,1.273-.909,4.224,4.224,0,0,1,1.432-.245h0Zm10.658,8.507a1.412,1.412,0,0,1-.422-0.4,2.356,2.356,0,0,1-.215-0.387,2.814,2.814,0,0,1-.438.324,2.713,2.713,0,0,1-.517.245,3.246,3.246,0,0,1-.541.134,3.8,3.8,0,0,1-.653.056,2.942,2.942,0,0,1-1.559-.38,1.966,1.966,0,0,1-.843-0.933,2.69,2.69,0,0,1-.151-0.774q-0.024-.427-0.024-0.823V113.5l2.1-.4v5.2a4.561,4.561,0,0,0,.072.988,2.364,2.364,0,0,0,.1.34,0.705,0.705,0,0,0,.278.277,0.888,0.888,0,0,0,.438.1,1.7,1.7,0,0,0,.429-0.064,1.633,1.633,0,0,0,.445-0.19,1.334,1.334,0,0,0,.478-0.521v-5.693l2.036-.427V119.3a3.128,3.128,0,0,0,.1.7,1.884,1.884,0,0,0,.4.767l-1.511.853h0Zm7.3-6.467a0.853,0.853,0,0,0-.334-0.134A1.937,1.937,0,0,0,73.974,115a1.323,1.323,0,0,0-.795.229,2.934,2.934,0,0,0-.509.451v5.724H70.538V116a8.939,8.939,0,0,0-.1-1.558,5.925,5.925,0,0,0-.2-0.814l1.909-.506a2.748,2.748,0,0,1,.191.4,2.519,2.519,0,0,1,.143.751,3.61,3.61,0,0,1,.414-0.458q0.207-.191.366-0.316a2.483,2.483,0,0,1,.525-0.277,1.679,1.679,0,0,1,.6-0.1,1.7,1.7,0,0,1,.8.174l-0.589,1.866h0Zm5.759,6.246V116.14a4.809,4.809,0,0,0-.032-0.609,0.7,0.7,0,0,0-.159-0.387,0.485,0.485,0,0,0-.231-0.158,0.91,0.91,0,0,0-.231-0.032,1.952,1.952,0,0,0-.374.04,1.428,1.428,0,0,0-.422.166,3.542,3.542,0,0,0-.374.237q-0.2.142-.374,0.285v5.724h-2.1v-5.867c0-.231-0.013-0.506-0.04-0.822a4.5,4.5,0,0,0-.247-1.075l1.861-.538a2.114,2.114,0,0,1,.2.412,2,2,0,0,1,.1.6l0.27-.19q0.111-.078.231-0.174a3.172,3.172,0,0,1,.406-0.252,3.447,3.447,0,0,1,.533-0.23,2.777,2.777,0,0,1,.963-0.15,2.079,2.079,0,0,1,1.28.364,1.963,1.963,0,0,1,.819,1.478c0.011,0.206.016,0.382,0.016,0.53v5.914h-2.1Zm8.033-3.542c-0.116,0-.247,0-0.389.008a4.442,4.442,0,0,0-.445.039,3.741,3.741,0,0,0-.438.087,0.991,0.991,0,0,0-.349.166,0.759,0.759,0,0,0-.311.459,2.192,2.192,0,0,0-.056.427,1.182,1.182,0,0,0,.262.806,0.854,0.854,0,0,0,.676.3,1.284,1.284,0,0,0,.6-0.15,1.774,1.774,0,0,0,.509-0.4l0.032-1.74h-0.1Zm1.814,3.953a3.359,3.359,0,0,1-.6-0.356,1.9,1.9,0,0,1-.541-0.624q-0.175.174-.27,0.261a1.5,1.5,0,0,1-.223.166,2.116,2.116,0,0,1-.6.308,3.193,3.193,0,0,1-1.034.135,2.976,2.976,0,0,1-2.036-.633,2.682,2.682,0,0,1-.525-0.728,2.524,2.524,0,0,1-.239-1.17,2.931,2.931,0,0,1,.318-1.391,2.264,2.264,0,0,1,1.1-.965A4.557,4.557,0,0,1,86.7,116.5a8.514,8.514,0,0,1,1.3-.1H88.26a1.981,1.981,0,0,1,.254.016v-0.332a1.716,1.716,0,0,0-.191-0.957,0.88,0.88,0,0,0-.748-0.261,3.039,3.039,0,0,0-1.265.285,5.73,5.73,0,0,0-1.105.648L84.3,114.274a7.148,7.148,0,0,1,.692-0.395c0.2-.095.4-0.184,0.612-0.269a8.867,8.867,0,0,1,.995-0.356,4.41,4.41,0,0,1,1.185-.134,4.557,4.557,0,0,1,1.074.111,2.814,2.814,0,0,1,.772.3,1.913,1.913,0,0,1,.525.451,2.065,2.065,0,0,1,.318.561,2.47,2.47,0,0,1,.119.672q0.024,0.4.024,0.641V116l-0.048,2.72c0,0.052,0,.111-0.008.174s-0.008.121-.008,0.174a2.091,2.091,0,0,0,.135.719,1.677,1.677,0,0,0,.644.735l-1.129,1.3h0Zm5.981-.442a2.7,2.7,0,0,1-.748.189c-0.233.021-.408,0.032-0.525,0.032a2.106,2.106,0,0,1-1.249-.325,1.814,1.814,0,0,1-.644-0.782,2.133,2.133,0,0,1-.159-0.625q-0.031-.324-0.031-0.608v-7.2c0-.179-0.005-0.363-0.016-0.553s-0.021-.39-0.032-0.6-0.032-.448-0.064-0.711l2.179-.491a6.85,6.85,0,0,1,.1.831q0.016,0.356.016,0.8v7.78q0,0.159.024,0.411a0.847,0.847,0,0,0,.119.4,0.41,0.41,0,0,0,.215.174,0.705,0.705,0,0,0,.215.047H95.7a0.344,0.344,0,0,0,.112-0.032l0.366,1.266h0Zm3.6-1.123a1.375,1.375,0,0,1-.111.545,1.4,1.4,0,0,1-.748.751,1.4,1.4,0,0,1-1.535-.3,1.367,1.367,0,0,1-.405-1,1.324,1.324,0,0,1,.405-0.973,1.338,1.338,0,0,1,.979-0.4,1.381,1.381,0,0,1,1,.4,1.309,1.309,0,0,1,.414.973h0Zm5.966-5.092a0.858,0.858,0,0,0-.334-0.134,1.942,1.942,0,0,0-.286-0.024,1.324,1.324,0,0,0-.8.229,2.923,2.923,0,0,0-.509.451v5.724h-2.132V116a8.915,8.915,0,0,0-.1-1.558,5.878,5.878,0,0,0-.2-0.814l1.909-.506a2.707,2.707,0,0,1,.191.4,2.525,2.525,0,0,1,.143.751,3.573,3.573,0,0,1,.414-0.458c0.138-.127.259-0.232,0.366-0.316a2.494,2.494,0,0,1,.524-0.277,1.873,1.873,0,0,1,1.4.071l-0.589,1.866h0Zm6.745,6.467a1.4,1.4,0,0,1-.421-0.4,2.284,2.284,0,0,1-.215-0.387,2.842,2.842,0,0,1-.438.324,2.707,2.707,0,0,1-.516.245,3.258,3.258,0,0,1-.541.134,3.8,3.8,0,0,1-.653.056,2.945,2.945,0,0,1-1.559-.38,1.967,1.967,0,0,1-.843-0.933,2.68,2.68,0,0,1-.151-0.774q-0.024-.427-0.024-0.823V113.5l2.1-.4v5.2a4.621,4.621,0,0,0,.071.988,2.438,2.438,0,0,0,.1.34,0.712,0.712,0,0,0,.278.277,0.887,0.887,0,0,0,.438.1,1.7,1.7,0,0,0,.429-0.064,1.648,1.648,0,0,0,.446-0.19,1.342,1.342,0,0,0,.477-0.521v-5.693l2.036-.427V119.3a3.1,3.1,0,0,0,.1.7,1.878,1.878,0,0,0,.4.767Z" transform="translate(-14 -33)"/>
</svg>
